<?xml version="1.0" encoding="utf-8"?>
<!-- Generator: Adobe Illustrator 22.1.0, SVG Export Plug-In . SVG Version: 6.00 Build 0)  -->
<svg version="1.1" id="Layer_1" xmlns="http://www.w3.org/2000/svg" xmlns:xlink="http://www.w3.org/1999/xlink" x="0px" y="0px"
	 viewBox="0 0 805 921.6" style="enable-background:new 0 0 805 921.6;" xml:space="preserve">
<style type="text/css">
	.st0{fill:#FFFFFF;}
	.st1{fill:#F7CED7;}
</style>
<g>
	<path class="st0" d="M605.4,825.7c-14.8,4.4-20.9-0.3-28.4-21.9c-2.4,4.9-3.8,9.8-6.7,14.1c-3,4.5-6.5,8.5-11.7,10.5
		c-7,2.6-13.6,0.5-18-5.7c-3.2-4.4-4.6-9.6-6.1-15.5c-1.5,3-2.6,5.5-3.9,7.9c-3.2,6-7.2,11.2-14,13.5c-7.2,2.4-13.3-0.1-17.8-7.3
		c-1.2-2-2.2-4.1-3.6-6.6c-6.3,7.9-13.6,14.3-24.4,12.3c-11.1-2.1-13.7-11.9-17.1-21.4c-2.3,5.1-4.1,9.8-7,13.9
		c-4.9,6.8-11.1,11.4-19.9,9.5c-8.8-1.9-12.6-8.7-14.5-16.7c-0.4-1.5-0.5-3.1-0.8-5.8c-2.1,4-3.5,7.1-5.3,10
		c-4.4,7.2-9.6,13.4-19.2,12.9c-9.6-0.4-15.7-5.6-19.4-14.1c-0.2-0.6-0.7-1.1-1-1.6c-11.7,19.4-22.8,19.9-34.7,17.3
		c-19.6-4.3-24.7-19.8-26.5-37.4c-3.8-1-7.7-1.7-11.3-4.5c-1.2,9.3-3.1,17.8-6.9,25.9c-13.3,28.4-41.7,43.5-74.2,37.7
		c-11.8-2.1-20.4-9.2-27.5-18.6c-1.5-1.9-1.4-2,0.4-5.1c1.6,0,2.1,1.5,2.9,2.5c16.7,21.4,42.9,23.6,62.9,5.3
		c25.7-23.5,30.4-73.7,9.4-100.6c-2.9-3.7-6.3-6.9-10-9.7c-6.5-4.9-12.7-7.8-21.4-4c-9.8,4.2-20.6,4.9-31.5,5.3
		c-1.1,15-1.9,29.6-4.1,44.1c-4.9,31.9-15.2,61.6-38.4,85c-28.1,28.3-62.6,37.1-101,29c-32.9-7-50.7-36-45-70
		c1.9-10.9,5.4-21,13.9-28.6c1.7-1.5,3.4-4,6.4-2.6c0.2,1.3-0.9,1.8-1.6,2.4c-7.4,6.6-11.8,14.8-13.6,24.4
		c-4.1,22.1,1.2,52.2,27.7,65.6c13.7,6.9,28.3,8.4,43.3,6.9c40.7-3.9,68.6-28.1,81.4-70.2c5.8-19.2,7-38.9,7.9-58.7
		c0.4-8.5,0.7-17,1.2-25.5c0.1-2.4-0.3-3.8-2.6-5.2c-3.8-2.1-3.7-4.4,0.4-6.4c2.5-1.2,3.1-2.8,3.3-5.4c1.6-23.2,4.1-46.1,13.1-67.8
		c7.8-18.7,20.8-32.7,38.3-42.7c2.5-1.4,2.5-1.4,5.3-1c0.3,1-0.2,1.6-0.9,2c-17.8,9.8-25,26.4-28.9,45.1
		c-3.4,16.6-3.2,33.5-4.3,50.2c-0.3,4.8-1.2,9.5-0.5,14.7c11-1.1,21.7-0.5,32.4,1.3c2.3,0.4,3.8-0.8,5.5-1.9
		c20.6-13.8,31.2-33.8,34.6-57.7c6.1-43.1-17.2-84.7-68.4-98.3c-2-0.5-3.6-0.7-5.2,1.3c-16.5,21.5-39.5,31.6-65.5,35.2
		c-22.9,3.2-45.2,0.2-66.2-10c-1.9-0.9-3.2-1-4.9,0.4c-28.4,23.3-45.5,52.7-46.3,89.8c-1,50.7,35.3,82.1,85.7,75.5
		c24-3.1,43.5-13.8,57.8-33.6c0.6-0.8,0.9-1.9,2.3-1.6c2,1.4,0.2,2.7-0.4,3.7c-7.4,13.6-18.3,23.7-32.4,30
		c-22.4,10-45.6,12.2-69.3,5.6C28.3,744.5,6.4,716.2,4,682.7c-3-42.8,14.4-76.2,47.3-102.5c1.2-0.9,2.3-1.9,3.5-2.8
		c0.1-0.1,0.2-0.3,0.3-0.5c-3.6-3.3-7.5-6.5-10.9-10.1c-19-20-23.3-53.5-10.1-77.7c12.2-22.4,39-31.9,65.4-22.4
		c27.8,10,43.1,31.1,50.3,58.9c1.8,6.8,2.5,13.7,3.2,21.2c11.2-0.4,22.3-0.1,33.3,0.8c2.8,0.2,2.8-2,3.3-3.5
		c7.8-21.4,6.8-42.1-5.3-61.8c-10.9-17.8-25.9-32.1-40.8-46.4c-13.6-13-27.7-25.5-39.8-40.1c-9.3-11.2-17.4-23.2-20.4-37.9
		c-1.2-5.7-1.6-11.5-0.8-17.6c-6.5-1.1-13-1.2-19.3-2.7c-39.8-9-59.7-51.5-41.1-88.1c2.4-4.8,5.7-9,10-12.3c1.3-1.1,2.6-2.7,5.1-1.5
		c-22,23.2-21.3,49-6.8,75c9.3,16.7,31.2,25.9,52.6,24.5c3.1-18.3,11.8-33.3,28.7-42.4c16.5-8.9,33.7-9.4,51.6-3.1
		c6-10,9.7-20.8,12.6-31.9c5.9-22.4,5.9-45.5,7.2-68.4c1.4-24.9,1.9-49.9,7.8-74.4c6.4-26.7,20.5-47.8,44.8-61.5
		c1.7-1,3.6-3.5,6-0.7c-0.2,0.4-0.3,0.8-0.5,1c-21.5,12.1-28.5,32.6-31.1,55.1c-3.1,26.8-3.4,53.8-5.2,80.8
		c-1.9,29.4-5.7,58.3-18.8,85.3c-3.4,7-7.5,13.7-12.2,20.5c8.5,6.6,14.8,14.7,17.4,25.3c1.7,6.9,2.7,13.8,0.9,20.7
		c-1.3,4.9-3.8,8.9-8.6,11c-3.2,1.4-4.1,1.1-7.1-2.2c6.6-3.2,11-8.3,11.1-15.8c0.1-14.1-4.9-25.9-16.7-35
		c-19.5,24.1-44.8,37.2-75.8,40c-0.6,11.5,2.4,22,7.5,31.8c7.8,15,19.2,27.2,31.6,38.3c15.1,13.6,30.5,26.8,45.6,40.4
		c7.4,6.7,14,14.2,19.9,22.3c16.7,23.1,17.1,47.5,6.1,72.8c-0.5,1.2-1.2,2.4-1.7,3.6c-0.1,0.3,0,0.6,0,1.2
		c17.5,3.5,34.5,8.9,49.4,19.1c29.7,20.2,44.7,47.7,39.3,84c-4,27.3-19.5,47.2-43.1,61c-1.5,0.9-3.1,1.7-4.9,2.7
		c5.1,2.4,10.1,4.3,14.7,6.9c20.6,11.7,31.9,29.6,34.3,53.1c0.8,7.4,3.2,10.1,11.4,12.2c0.6-4.6,1-9.2,1.8-13.7
		c2.2-11.8,6.4-22.7,14.1-32.1c4.9-6,10.8-10.4,18.7-11.6c7.5-1.1,11.9,2.5,12.1,10.1c0.2,4.2-0.8,8.3-2.3,12.2
		c-5.5,14.4-14.1,26.4-27.4,34.5c-1.4,0.9-2.6,1.5-2.5,3.7c0.4,7.6,1.5,14.9,5,21.7c6.8,13,22,15.6,32.8,5.6
		c5.2-4.9,8-10.2,7.3-18.3c-1.9-20,3.4-38.6,15.3-55.1c3.6-4.9,8.1-8.9,13.8-11.2c8.8-3.6,15.2-1.1,19.5,7.3c0.5,1,1,2.1,1.4,3
		c1.4,1.1,2.7,0.2,4,0.2c7-0.1,10,3.1,9.6,10.2c-0.9,16.3-4.1,32.4-4.3,48.8c0,4.3,0,8.7,1.7,12.8c2.6,6.5,8.7,8.7,14,4.1
		c8.1-6.9,13.5-15.6,12.5-26.9c-1.6-17.9-0.3-35.5,1.6-53.3c0.9-7.9,7.9-13.5,17.4-9.5c-1.9,10.7-3.6,21.5-4.5,32.4
		c-1.3,15.3-2.7,30.6,0.4,45.8c1.1,5.2,2.1,11.1,8.2,12.7c6.4,1.7,11.5-1.8,15.9-6.3c2.7-2.6,3.4-5.3,2.6-9.3
		c-4-19.3-4.2-38.7,0.3-58c1-4.4,2.5-8.6,5.2-12.4c1.4-1.9,2.7-4,5.6-3.5c2.8,0.5,3.5,2.9,4.2,5.1c1.8,5.8,1.7,11.8,1.6,17.8
		c-0.4,13.9-3.1,27.3-6.5,40.8c-2.1,8.5,0.8,17.1,6,24.4c2.5,3.4,6.4,2.9,9.5,0.9c8.4-5.4,13.5-13.7,13.5-23.2
		c0-13.3-0.9-26.6-0.1-39.9c0.8-13.3,2.4-26.5,4.1-40c-2.6-1.1-5.2,0-7.8,0.1c-42.5,1.5-84.9,2.9-127.4,2.4
		c-16.1-0.2-31.8-3.2-46.6-10c-47.1-21.4-53.5-77.3-12.6-109.1c8.2-6.4,17.4-11.1,27.5-13.9c3.4-0.9,4.6-2.5,5.4-5.9
		c2.8-12.3,6-24.6,9.1-36.8c0.3-1.1,0.9-2.1,0-3.6c-1.6,2-3,4-4.7,5.8c-9.6,10.4-24,8.1-29.7-4.8c-4.3-9.6-2.3-19.7-1.5-29.6
		c1.2-14.6,3.8-29.1,3.6-43.8c0-2.4,0.8-5.4-2.3-6.5c-3.1-1-5.1,1.3-6.7,3.4c-7.5,9.9-11.3,21.4-15,33c-5.2,16.2-8.7,32.8-9.2,50.1
		c-1.5,0.3-2.8,0.7-4.1,0.9c-6.7,1-10.1-1.6-9.6-8.4c0.8-11.8,2.1-23.6,3.2-35.3c1.1-11.4,2.2-22.9,3.2-34.3c0.1-1.3-0.2-2.6-0.3-4
		c-0.4-4-2.6-4.3-5.5-2.6c-3.9,2.3-6.2,6-8.2,9.9c-6.5,12.1-10.3,25.3-13.4,38.6c-2.9,12.3-5.1,24.8-4.4,37.5
		c-8,3.2-12.6,0.9-14.8-7.5c-2.4,1-3.4,3.6-5.3,5.2c-9.3,8-20.6,6.1-26.4-4.7c-5.5-10.3-6.5-21.6-7.1-32.9
		c-0.8-14.8,0-29.6,1.8-44.4c0.8-6.7,4.3-10.4,9.8-10.7c3.4-0.2,4.8,0.9,4.3,4.6c-2.1,18.2-3.7,36.5-3.3,54.8c0.2,8,0.6,16,3.2,23.7
		c3.3,9.8,10.6,11.5,17.7,4.1c4.2-4.4,7-9.4,7.5-15.8c1.9-23.3,2.9-46.6,0.4-69.9c0-0.5,0.1-1,0.2-1.4c9.9-3.6,15.4,0.1,14.8,10
		c-0.8,13.5-1.8,26.9-2.5,40.4c-0.1,1.5-1.5,2.9-0.4,4.9c1.7-1.3,1.7-3.2,2.2-4.8c3.9-12.8,8.3-25.3,15.3-36.8
		c2.6-4.3,5.6-8.3,9.6-11.4c8-6.3,15.6-3.6,17.9,6.4c1.4,6.1,0.5,12.3-0.2,18.4c-1,8-2.2,15.9-3.3,24.3c2.5-1.1,2.2-3.1,2.6-4.7
		c3-10.6,6.2-21.1,11.3-30.9c2.2-4.3,4.8-8.4,8.6-11.5c8.3-6.9,19.8-3.1,22.2,7.5c2,8.5,0.4,16.9-0.6,25.3
		c-1.4,11.2-3.3,22.4-5,33.6c-0.6,4.1-0.8,8.3-0.3,12.5c1,7.7,7.6,10.8,14.4,6.9c2.9-1.7,5.2-4.2,6.9-7.1c4.7-8,7.9-16.2,7.7-25.9
		c-0.5-19.1-1-38.2-4-57.2c3-1.1,5.8-0.8,8.6-0.1c4.3,1.1,6.4,3.8,6.2,8.4c-0.2,5.4-0.1,10.9,0.7,16.5c1.7-3.3,3.2-6.7,5-9.9
		c4.4-7.5,10.3-13.4,19.7-13.2c10.5,0.2,17.4,6.1,21.3,15.5c6.4,15.5,5.1,31.3,0.8,47c-2.2,7.9-5.5,15.3-10.6,21.9
		c-3,3.9-6.5,7.1-11,9.2c-8.9,4.1-17.2,1.9-22.8-6.1c-0.8-1.2-1.6-2.4-2.3-3.6c-0.5,0-1.1,0.1-1.6,0.1c0,6.9,0.2,13.7,0,20.6
		c-0.2,7-0.8,13.9-1.2,21.4c13.3,0.7,25.6,4.2,37.2,10.4c11.5,6.1,21.4,14,29,24.7c-1.9,3.6-3.4,2.3-5.4,0.1
		c-13.9-14.9-30.4-25.2-50.7-29c-2.6-0.5-5.3-0.6-7.9-0.9c-0.8-0.1-1.6,0.1-2.6,0.1c-1.4,11.4-2.5,22.6-5.3,33.6
		c-1.5,6-3.2,11.9-6.9,17c-2.3,3.3-5.2,5.9-9.6,4.9c-4.1-0.9-5-4.5-5.7-8c-2.2-11.9,0-23.6,1.7-35.3c0.4-3.1,1-6.2,1.6-9.4
		c-40,9.8-59.1,56.8-30.6,91.3c14,17,33.2,24.4,54.2,28.1c19.4,3.4,38.9,1.9,58.4,1.7c24.1-0.2,48.3-1.1,72.4-1.8
		c3.3-0.1,6.6-0.4,10-0.6c2.5-13.4,4.9-26.7,7.5-39.8c1.4-7.1,5.2-9,11-6.6c2.7,1.1,3.2,2.4,2.5,5.3c-3.3,12.9-5.3,26-7.5,39.7
		c40.1-5.1,79.8-9.1,120.5-6.5c-2.1,3.1-4.3,2.5-6.2,2.4c-37.6-1.5-74.8,3.9-112,8.2c-1.8,0.2-3.1,0.5-3.4,2.7
		c-3.6,28.9-7.9,57.8-5,87.1c0.4,4.3,1.3,8.6,3,12.6c3.3,7.5,9.7,9.2,15.5,3.5c7.9-7.8,13-17.5,12.2-29c-1.2-17-0.4-34,2.1-50.8
		c1.4-9.1,8-12.5,17.1-8.9c-2.7,15.1-4.7,30.5-5.5,45.9c-0.6,11.2-0.9,22.3,1.7,33.3c1.2,5.2,2.6,10.7,9,12
		c4.6,0.9,12.3-3.7,15.4-8.7c1.2-1.9,0.8-3.9,0.8-5.8c0-16.1-1.2-32.3,0.7-48.4c0.9-7.8,2.4-15.5,5.8-22.6c1.6-3.4,3-8.1,7.6-7.3
		c4.2,0.7,4.2,5.5,4.7,9.1c1.7,13.1,0.2,26-2.9,38.6c-2.9,11.7-5.2,23.3-2.8,35.4c30.1-7.4,60.7-4.8,91.3-4.2
		c18.6,0.4,37.3,1.4,55.5-4.4c4.1-1.3,8.1-2.9,11.8-5.4c5.9-4,9.4-9.4,8.8-16.8c-0.6-7-5.4-10.2-11.7-12.4c6.3-1.1,12.8,4,13.9,10.4
		c1.8,11.2-2,20-11.8,25.9c-11.1,6.8-23.5,9-36.2,10.1c-24.3,2.1-48.6-0.3-72.9-0.8c-14.5-0.3-29-0.1-43.4,1.8
		c-4.4,0.6-5.9,2.2-6,6.8c-0.8,22.1-3.5,43.8-11.7,64.5c-3.1,7.8-7.1,15.1-13,21.2c-6.1,6.3-13.2,9-21.7,5.8
		c-8.2-3.1-11.3-10-12.1-18c-1.4-12.7,2.2-24.4,7.6-35.7c6.7-14.1,16.7-25.6,28.6-35.4c0.4-0.3,1.4-0.4,0.8-1.1
		C606.5,824.8,605.9,825.5,605.4,825.7z M149.5,547.1c-0.3-8.7-2-17-4.8-25c-9.2-26.4-25.7-45.7-53.6-53.1
		c-24.7-6.5-46.5,5-54.5,27.9c-9.4,27-0.3,56.6,22.5,73.6c2.4,1.8,4.1,1.7,6.5,0.2c12.3-7.4,25.6-12.7,39.5-16.5
		C119.6,550.2,134.4,548.1,149.5,547.1z M149.7,552c-28.6,1.8-55.1,9.2-79,24.9c0.5,0.7,0.7,1.1,0.9,1.2
		c30.5,13.8,60.7,14.7,90.6-1.7c9.7-5.3,17.4-13,23.2-23.3c-11-1.4-21.3-2-31.6-1.3c-1.3,1.6-0.2,4.5-3.5,4.6
		C150.1,555.1,149.9,553.7,149.7,552z M400.1,510.2c0,5.9-0.2,10,0,13.9c0.5,7.8,2.2,15.2,7,21.5c5.2,6.8,12.8,6.9,18.2,0.4
		c3.2-3.8,5-8.2,6.4-12.9c4.4-14.7,5.3-29.8,3.9-45c-0.6-6.4-1.8-12.9-5.1-18.6c-3.1-5.4-6.8-6.6-12.6-4.3
		c-5.8,2.3-9.1,7.1-11.8,12.4C400.8,488.6,399.2,500.2,400.1,510.2z M414,766.5c-0.2-7.8-1-14.9-3.8-21.6
		c-3.9-9.5-11.2-10.6-17.8-2.7c-1.2,1.4-2.2,3-3.1,4.5c-4.2,7.3-6.4,15.3-7.9,23.5c-2.7,14.8-4.3,29.7-0.1,44.5
		c2.9,10.3,10.7,12.1,18.2,4.4c4.1-4.1,6.4-9.2,8.5-14.5C413,792.2,412.4,778.9,414,766.5z M616.9,826.3c-1,0-1.4-0.1-1.6,0
		c-0.7,0.4-1.4,0.8-2.1,1.3c-18,13.8-29.3,31.9-34.3,54c-1.5,6.5-2,13.1-0.1,19.7c1.4,5,4.2,8.6,9.6,9.7c5.2,1,8.5-2.1,11.4-5.7
		c2.7-3.4,4.7-7.2,6.3-11.3C614.6,872.4,615.9,849.5,616.9,826.3z M161.1,293.7c-17.4-5.9-33.5-5.6-48.1,5.3
		c-11.8,8.8-16.7,21.3-17.8,36C123.9,331.7,145.5,318.4,161.1,293.7z M319.6,786.7c13.4-7.8,20.7-19,25.4-32.2c1.6-4.4,2.5-9,2-13.7
		c-0.6-5-3.8-6.9-8.5-4.8c-3.9,1.7-6.3,4.8-8.4,8.3C322.7,757.1,319.9,771,319.6,786.7z M387.2,589.9c-3.2,0.5-5.6,1-8,1.3
		c-1.4,0.2-2.1,0.8-2.3,2.2c-1.9,12.5-4.4,24.9-3,37.6c0.3,2.8,0.8,6.3,4.2,6.4c3,0.1,3.2-3.4,3.7-5.7
		C385.3,618.2,386,604.5,387.2,589.9z M388.6,541.5c-4,14.7-7.6,29.4-10.2,44.9c3.4-0.5,6.1-0.8,9.2-1.2
		C388.2,570.5,389.1,556,388.6,541.5z M627.9,784.1c4.3-15.6,6.6-31.4,3.3-47.6C626.6,752.1,627.5,768.1,627.9,784.1z M505.5,739.4
		c-4.5,16.5-3.4,33.3-2.7,50C506.7,772.9,508.8,756.3,505.5,739.4z M198.5,722.5c10.3,0.5,19.9-1,30.3-5.7
		c-11-1.6-20.5-2.2-29.8-0.2C198.1,718.6,198.1,720.2,198.5,722.5z M265.2,543.6c-0.1,0.1-0.2,0.2-0.2,0.3c0.1,0.5,0.4,0.5,0.6,0
		c0-0.1,0-0.2-0.1-0.3C265.4,543.5,265.3,543.6,265.2,543.6z M608.5,825.2c0.1-0.1,0.2-0.2,0.3-0.3c-0.1-0.1-0.2-0.2-0.3-0.3
		c-0.1,0.2-0.2,0.3-0.3,0.5C608.3,825.1,608.4,825.1,608.5,825.2z"/>
	<path class="st0" d="M599.2,294.2c-1.7,3.2-3.7,2.1-5.5,1.6c-11.9-3.8-15.2-13.4-16.6-24.4c-0.4-3.1-0.3-6.3-0.5-10.4
		c-5.5,8.7-9.4,18.5-20.7,19.5c-11.3,0.9-18.4-5-22.5-15.4c-14.8,24.1-31.8,18.6-38.7-5c-6.3,12.7-14,23.2-29.6,22.9
		c-15-0.2-25-7.7-30.6-22c-2.4,3.8-4.4,7.5-6.8,11c-3.2,4.5-7.4,7.7-13.1,8.4c-9.2,1-16.6-4.4-19.5-14.2c-2.3-7.7-1.3-15.6-0.7-23.3
		c1.2-14.4,3.5-28.8,4-43.3c0.1-1.8-0.1-3.6-0.1-5.4c-0.1-2,0-4.2-2.5-4.9c-2.2-0.6-3.9,0.8-5.2,2.3c-4.3,4.6-6.9,10.2-9.4,15.8
		c-8.5,19.3-13.1,38.8-16.2,68.4c-0.7,0.2-1.4,0.6-2.2,0.7c-8.7,1.9-12-0.8-11.3-9.8c0.8-10.8,2-21.6,3-32.3
		c1.1-11.4,2.2-22.9,3.2-34.3c0.1-1.6,0.1-3.4-0.1-5c-0.6-3.9-2.5-4.8-5.9-2.7c-4,2.5-6.4,6.4-8.3,10.4
		c-11,23.3-17.2,47.8-17.5,73.7c0,0.6-0.1,1.3-0.1,1.9c-9.2,2.8-13.8-0.1-13.9-9.6c-5.9,8.3-12.7,14.2-22.8,11.1
		c-10.1-3.1-12.6-11.9-14-21.9c-2.3,4.2-4.1,8-6.3,11.5c-4.7,7.2-10.7,12.3-20.2,11c-9.1-1.3-14.7-6.8-17.6-15
		c-5.2-14.4-3.4-28.9,0.6-43.2c2.9-10.3,7.4-20,14.8-28c3.4-3.7,7.4-6.7,12.3-8.3c8.1-2.7,14-0.3,17.9,7.3c0.7,1.3,1.3,2.7,1.9,4.1
		c1.4-0.1,2.7-0.2,4-0.2c6.7-0.1,9.8,2.7,9.3,9.3c-0.8,10.5-2.2,20.9-3.1,31.3c-0.7,8.8-2.3,17.5-0.7,26.4c0.8,4.5,2,9.1,7.1,10.5
		c5,1.3,8.6-1.6,11.7-5c5-5.4,6.7-11.9,7.1-19.2c1.3-21.6,2.5-43.2,0-64.9c-0.1-0.8,0-1.6,0-2.3c10.4-3.6,15.4,0,14.8,10.6
		c-0.8,14.6-1.9,29.2-2.8,44.6c1.9-1.8,1.9-3.6,2.4-5.1c4-12.9,8.4-25.6,15.7-37.1c3.1-4.8,6.5-9.3,11.6-12.2
		c6.2-3.6,11.9-1.6,14.5,5.1c2.9,7.5,1.4,15.1,0.5,22.7c-0.9,7.8-2.1,15.6-3.3,23.9c2.4-1.3,2.2-3.4,2.6-4.9
		c2.9-10.4,6.1-20.8,11-30.5c2.1-4.2,4.6-8.1,7.9-11.5c4.1-4.2,9-5.5,14.6-3.9c5.6,1.7,8.4,5.8,9.2,11.3c1.5,11-0.5,21.9-2,32.8
		c-1.2,8.9-2.8,17.8-4,26.7c-0.5,3.4-0.6,7-0.1,10.5c1.1,8.2,8.3,11.7,14.9,6.6c6.9-5.4,12.4-12.1,10.7-22c-0.3-2-0.5-4-0.7-6.1
		c-4.2-0.8-8.3-1.6-11.4-4.7c-1.1-1.1-2.8-2.5-1.1-4.2c1.4-1.4,2.7-0.2,3.9,0.8c2.4,1.8,4.7,3.8,8.3,3.8c0.7-4.7,1.1-9.5,2-14.1
		c2.6-13.1,7.4-25.2,17-34.9c4.6-4.6,10-7.8,16.6-8.2c7-0.5,10.6,2.7,11.1,9.7c0.3,4.4-0.8,8.6-2.3,12.7
		c-5.5,14.4-14.2,26.3-27.5,34.5c-1.5,0.9-2.8,1.7-2.6,3.8c0.7,7.6,1.6,15.2,5.4,22.1c6.7,12,20.9,14.7,31.4,6
		c5-4.2,8.1-9.6,10.7-15.5c0.6-1.3,0.5-2.5,0.2-3.9c-2.7-13.5-3.5-27.1-3.3-40.8c0-0.6-0.1-1.2-0.1-2c-3.5,0.3-5.1,5-9,3.8
		c0-1.7,1.1-2,1.8-2.4c5.5-2.8,7.6-6.8,7.9-13.3c1.2-25.7,5-51,13.5-75.4c3.4-9.8,7.7-19.2,14.4-27.2c2.2-2.6,4.6-4.9,7.4-6.7
		c7.4-4.9,13.6-2.2,15.2,6.8c1.4,8,0.2,15.9-1.6,23.8c-5.7,26.1-16.6,49.8-32.5,71.2c-1,1.3-2,2.6-2.1,4.4
		c-1.9,21.3-3.3,42.5,0.2,63.8c0.7,4,1.7,7.8,3.8,11.3c3.1,5.4,8,7,13,3.3c5.9-4.4,10.5-9.6,9.5-18.2c-2.1-19.5,2.4-37.7,13-54.3
		c4.1-6.4,9.3-11.8,16.7-14.4c8.5-3,14.6-0.5,18.6,7.5c0.6,1.2,1.1,2.4,1.7,3.7c1.3-0.1,2.4-0.2,3.5-0.2c7.3-0.1,10.2,2.6,10,9.8
		c-0.3,13.3-2.5,26.5-4.1,39.7c-1.3,10.1-2.6,20.2-1.5,30.4C589.7,284.1,591.6,290.8,599.2,294.2z M506.3,187.1
		c0.8-1.4,1.6-2.9,2.4-4.3c12.9-20.5,21.9-42.5,26.6-66.3c1.4-7,2.4-14.2,0.6-21.3c-0.5-1.8-1.1-3.6-3.3-4c-1.9-0.4-3.1,1-4.2,2.2
		c-2.1,2.4-3.5,5.3-4.7,8.2c-8.6,21.3-12.4,43.8-15.9,66.3C507,174.2,504.9,180.5,506.3,187.1c-0.2-0.1-0.4-0.2-0.7-0.3
		c0.1,0,0.3-0.1,0.4-0.1C506.2,186.8,506.3,186.9,506.3,187.1z M242.5,247.8c0.2,2.3,0.4,7,1,11.6c0.4,2.8,1,5.6,2,8.2
		c3.1,8.5,9.3,10,16.3,4.2c4.5-3.7,7.2-8.7,9.2-14c6.1-16.4,6.9-33.4,5.8-50.6c-0.3-4.4-1.6-8.8-3.7-12.9c-3.7-7.1-9.6-8.1-15.3-2.5
		c-3.2,3-5.3,6.8-7,10.8C244.9,216.3,243,230.8,242.5,247.8z M545.8,244.4c0,3.8-0.1,7.6,0,11.5c0.2,3.8,0.9,7.6,2.2,11.2
		c3.3,9.1,9.5,10.7,16.9,4.4c5.1-4.4,7.9-10.3,9.9-16.5c4.8-15.1,5.8-30.6,4.9-46.3c-0.3-5-1.6-9.9-3.9-14.4
		c-3.6-7.1-9.6-8.1-15.3-2.6c-3,2.9-5.1,6.5-6.8,10.4C547.9,215.6,545.9,229.9,545.8,244.4z M445.3,237.7c3-1,5-2.5,6.8-4
		c10.9-9.1,17.6-20.7,20.4-34.5c0.9-4.4,2.4-10.2-3.2-12.3c-5.1-2-8.7,2.2-11.4,6.1C448.6,206.2,446.2,221.4,445.3,237.7z"/>
	<path class="st0" d="M168.7,143.7c-3.1,7.4-7.7,13.4-13.2,18.9c-23.9,23.7-67.6,32.6-98.6,19.8c-22.5-9.3-34.2-26.6-34.9-50.7
		C20.7,85.1,42.8,51.3,81.7,27.7c24.6-15,51.7-22.5,80.4-24.5C189,1.2,215,4.3,239.5,16.1c23.7,11.4,39.9,29,44.9,55.6
		c6,31.7-10.2,66.1-37.4,79.3c-8.7,4.2-17.8,6.5-27.6,4.5c-0.8-0.2-1.7-0.1-1.9-1.3c0.2-1.1,1.2-1,1.9-1
		c13.3,0.7,23.6-5.3,31.6-15.2c27.3-33.9,25.2-84.3-21.1-109.6c-24-13.1-50-16.7-76.9-15.1C122.2,15.2,93.6,23.9,69,43
		c-27.7,21.4-40.8,49.9-39.7,84.7c0.8,27.3,17.1,47.2,44,52.5c33.3,6.5,62.3-2.2,85.8-27.2c2.2-2.3,3.8-5,5.7-7.6
		C165.6,144.3,166.2,142.7,168.7,143.7z"/>
	<path class="st0" d="M587.8,463.8c10.2-2.6,13.8,0.3,13.5,10.2c-0.6,15.5-1.1,30.9-0.8,46.5c1.8-6.4,3.5-12.8,5.4-19.2
		c2.8-9.3,6.4-18.2,11.9-26.3c2-2.9,4.2-5.6,7.1-7.6c8.3-5.7,18.6-1.4,20.2,8.5c1.5,9.9-1,19.5-2.6,29.2c-2.5,14.9-5.8,29.8-5.5,45
		c0.2,6.8,1.7,12.9,8.2,16.5c-1.1,3.1-3.3,1.9-5.1,1.3c-10.3-3.5-13.8-11.7-15.1-21.5c-1.6-12.1,1.7-23.8,3.4-35.7
		c1.6-10.7,3.6-21.3,3.7-32.2c0-1.2,0-2.3-0.1-3.5c-0.3-2.1-0.3-4.6-2.8-5.4c-2.2-0.7-3.7,1.1-5.1,2.6c-4.1,4.3-6.9,9.4-9.3,14.7
		c-8.6,19-14.8,38.5-14.3,59.7c0.1,2.6-0.7,3.5-3.2,3.8c-8.1,0.8-10.7-1.7-10-9.6c2.4-25.1,3.8-50.1,0.5-75.2
		C587.6,465,587.7,464.5,587.8,463.8z"/>
	<path class="st0" d="M551.9,463.5c11.9,3.6,15.3,13.8,18.7,24.5c5.5-1.7,9.5-5.9,14.6-8.2c-2.7,4.2-6.4,7.3-10.5,9.7
		c-2.6,1.5-3.5,3.1-3.1,6.3c2,14.2,1,28.2-4.6,41.6c-5.4,13-13.6,19.1-25.3,18.9c-12.5-0.2-22.2-7.4-27.1-20
		c-8.7-22.6-1.1-55.6,16.6-72.1c4.6-4.3,9.9-7.2,16.1-8.6c1.3-0.3,2.6-0.8,3.6,0.6c-0.4,1.8-2.5,1.3-3.3,2.6c-2,0.9-4.4,1.5-4.2,4.9
		C546.5,463.8,549.2,463.6,551.9,463.5z M539.3,467.7c0.3-0.4,0.6-0.7,0.9-1.1c1.6-1.3,4.5-1.5,4.9-5c-3.2,0.5-4.4,2.5-5.8,4.2
		c-0.3,0.4-0.5,0.7-0.8,1.1c-0.3,0.4-0.6,0.8-0.9,1.2c-0.4,0.5-0.9,1.1-1.3,1.6c-10.1,16-11.7,33.7-9.7,52
		c0.9,7.8,2.7,15.4,7.3,22.1c4.9,7,11.7,8.6,19.2,4.4c3.4-1.9,6.2-4.6,8.1-8c8.2-14.5,8.1-30,5.5-45.9c-22.5,4-34.2-5.6-29.4-23.6
		c0.4-0.6,0.8-1.2,1.2-1.9C538.8,468.5,539,468.1,539.3,467.7z M565.3,490c-1.2-6.4-3.5-11.8-7.6-16.3c-4.9-5.5-11.6-6.5-15.2-2.5
		c-3.5,3.8-1.9,10.9,3.3,15.3c1.9,1.6,4.1,2.8,6.6,3.4C556.5,491,560.6,490.8,565.3,490z"/>
	<path class="st0" d="M473,521.1c-9.2-1.9-14.7,1.2-16.1,9.1c-1.8,9.6,4.3,18.7,13.4,20.1c12.6,2,21.8-8.9,19.1-22.9
		c-0.6-2.9-1.4-5.9-2.7-8.6c-4.7-10.2-9.5-20.3-14.9-31.6c-1.2,7.4-0.2,14-2.1,20.5c-0.9-0.7-1.4-0.9-1.4-1.1
		c0.9-12.1,1.2-24.2-1.2-36.2c-1.2-6.2-0.5-12.6,1.9-18.7c1.6-4.1,4-7.8,8.4-9.4c2.8-1,5.7-1.1,7.7,1.6c1.8,2.4,1.3,5.1-0.3,7.4
		c-1.5,2-3.1,4-5.1,5.4c-2.9,2.1-3.3,4.5-2.7,7.8c1.5,7.8,5,14.8,8.6,21.7c4.6,8.8,9.7,17.4,12.8,27c2.2,6.9,3.2,13.9,1.6,21.1
		c-3.5,15.7-18.9,25.4-34.5,21.8c-9.2-2.2-14.9-9.1-15.2-18.5c-0.3-9.7,5.1-18.2,13.2-20.8c2.4-0.8,4.9-1.1,7.4-0.5
		C473.2,517,474.9,518.3,473,521.1z"/>
	<path class="st0" d="M250.8,403.9c0,7-3.3,12.3-7.9,13.7c-3.4,1-6.2,0.3-8.2-2.8c-2.6-4.1-1.8-10.6,1.6-14.9
		c2.5-3.2,5.9-4.5,9.7-3.3C249.8,397.8,250.7,401.3,250.8,403.9z"/>
</g>
<path class="st1" d="M912.7,324.5c-0.6,0-0.6,1,0,1C913.3,325.5,913.3,324.5,912.7,324.5z"/>
</svg>
